<?xml version="1.0" standalone="no"?>
<!DOCTYPE svg PUBLIC "-//W3C//DTD SVG 20010904//EN"
 "http://www.w3.org/TR/2001/REC-SVG-20010904/DTD/svg10.dtd">
<svg version="1.0" xmlns="http://www.w3.org/2000/svg"
 width="512.000000pt" height="512.000000pt" viewBox="0 0 512.000000 512.000000"
 preserveAspectRatio="xMidYMid meet">
<metadata>
Created by potrace 1.14, written by Peter Selinger 2001-2017
</metadata>
<g transform="translate(0.000000,512.000000) scale(0.100000,-0.100000)"
fill="#000000" stroke="none">
<path d="M1115 4833 c-201 -17 -393 -147 -479 -326 -20 -42 -39 -84 -41 -94
-2 -10 -8 -38 -13 -62 -7 -29 -10 -648 -8 -1815 2 -1685 3 -1774 20 -1826 59
-177 166 -300 327 -374 116 -53 61 -51 1835 -51 1572 1 1651 2 1683 19 45 24
65 44 86 85 49 96 5 216 -94 259 -32 14 -210 16 -1681 16 l-1645 1 -45 27
c-54 32 -71 51 -93 105 -42 105 17 233 121 267 41 13 248 15 1678 15 1623 -1
1632 -1 1671 20 49 24 89 70 101 115 15 54 8 3211 -7 3266 -23 82 -65 154
-122 210 -84 83 -106 97 -204 126 -56 17 -148 18 -1560 18 -825 1 -1513 0
-1530 -1z m216 -388 c1 -15 1 -2957 0 -2975 -1 -12 -20 -15 -116 -14 -78 1
-140 -4 -190 -16 l-75 -17 0 1433 c0 1527 -2 1453 49 1522 44 58 100 77 224
78 67 0 107 -4 108 -11z m1346 -879 c23 -8 121 -66 217 -128 97 -62 183 -118
193 -123 103 -59 245 -162 266 -193 63 -90 74 -190 32 -280 -30 -63 -67 -95
-215 -189 -69 -44 -165 -106 -215 -138 -49 -32 -121 -78 -158 -102 -95 -62
-133 -76 -204 -76 -117 0 -227 80 -259 189 -12 43 -14 119 -12 456 3 394 3
404 25 444 65 121 210 183 330 140z"/>
</g>
</svg>
